<svg width="32" height="32" viewBox="0 0 32 32" fill="none" xmlns="http://www.w3.org/2000/svg">
<defs>
        <filter id="shadow" x="-30%" y="-30%" width="400%" height="400%">
            <feGaussianBlur in="SourceAlpha" stdDeviation="6" /> 
            <feOffset dx="0" dy="0" result="offsetblur" /> 
            <feFlood flood-color="#7d298a" /> 
            <feComposite in2="offsetblur" operator="in" />
            <feMerge>
                <feMergeNode />
                <feMergeNode in="SourceGraphic" /> 
            </feMerge>
        </filter>
    </defs>
<path d="M14.0845 0.609417C14.6488 0.21126 15.3229 -0.00170898 16.0136 1.14441e-05C16.7043 0.00173187 17.3774 0.218056 17.9396 0.619019C18.5096 1.035 18.9418 1.61098 19.1788 2.27655L20.61 6.66999C20.9773 7.7712 21.5957 8.77199 22.4165 9.59333C23.2372 10.4147 24.2378 11.0341 25.3392 11.4026L29.7931 12.8426C30.4516 13.0808 31.0187 13.5196 31.4144 14.0969C31.8102 14.6743 32.0147 15.3613 31.9992 16.061C31.9836 16.7607 31.7488 17.4379 31.3277 17.9971C30.9067 18.5564 30.3206 18.9695 29.6522 19.1783L25.2496 20.6119C24.1471 20.9785 23.145 21.5963 22.3226 22.4166C21.5001 23.2369 20.8798 24.237 20.5108 25.3381L19.0635 29.7795C18.8305 30.4339 18.3991 30.9993 17.8295 31.3973C17.2599 31.7952 16.5804 32.0059 15.8854 31.9999C15.1905 31.9939 14.5147 31.7716 13.952 31.3639C13.3894 30.9562 12.9679 30.3834 12.7461 29.7251L11.2829 25.2453C10.9155 24.1738 10.3098 23.1995 9.51111 22.3958C8.71246 21.5921 7.74178 20.98 6.67213 20.6055L2.22149 19.1751C1.56701 18.9417 1.00147 18.5105 0.603404 17.9413C0.205334 17.372 -0.00552228 16.6931 0.000109962 15.9986C0.0057422 15.3042 0.227583 14.6287 0.634834 14.066C1.04208 13.5033 1.61454 13.0813 2.27272 12.8586L6.67213 11.4346C7.78023 11.0671 8.78655 10.4449 9.61016 9.61789C10.4338 8.79091 11.0517 7.7823 11.4142 6.67319L12.8614 2.22216C13.0919 1.56938 13.521 1.0062 14.0845 0.609417Z" fill="#9547A5" filter="url(#shadow)"/>


</svg>

